#Comment line ignore any data following # character 
#Hierarchical Translation and Rotation (.htr) file 
[Header]	
#Header keywords are followed by a single value 
FileType HTR		#Single word string
DataType HTRS		#Translation followed by rotation and scale data
FileVersion 1		#integer
NumSegments 84		#integer
NumFrames 2		#integer
DataFrameRate 30		#integer, data frame rate in this file
EulerRotationOrder ZYX
CalibrationUnits mm
RotationUnits Degrees
GlobalAxisofGravity Y
BoneLengthAxis Y
ScaleFactor 1.00
[SegmentNames&Hierarchy]
#CHILD	PARENT
MASTER GLOBAL
root MASTER
chest root
L_mid_tent01 root
R_mid_tent01 root
spine01 root
Bip01_Neck chest
L_humerus chest
R_humerus chest
weapon_bone chest
Bip01_Head Bip01_Neck
eye_left_bone Bip01_Head
eye_right_bone Bip01_Head
L_forearm L_humerus
L_front_hand L_forearm
L_weapon_bone L_forearm
L_front_hand01_01 L_front_hand
L_front_hand02_01 L_front_hand
L_front_hand03_01 L_front_hand
L_front_hand01_02 L_front_hand01_01
L_front_hand02_02 L_front_hand02_01
L_front_hand03_02 L_front_hand03_01
R_forearm R_humerus
R_front_hand R_forearm
R_weapon_bone R_forearm
R_front_hand01_01 R_front_hand
R_front_hand02_01 R_front_hand
R_front_hand03_01 R_front_hand
R_front_hand01_02 R_front_hand01_01
R_front_hand02_02 R_front_hand02_01
R_front_hand03_02 R_front_hand03_01
null_rope01_connect L_mid_tent01
Rope1_Seg01 null_rope01_connect
Rope1_Seg02 Rope1_Seg01
Rope1_Seg03 Rope1_Seg02
Rope1_Seg04 Rope1_Seg03
Rope1_Seg05 Rope1_Seg04
Rope1_Seg06 Rope1_Seg05
Rope1_Seg07 Rope1_Seg06
Rope1_Seg09 Rope1_Seg07
L_mid_hand01 Rope1_Seg09
L_mid_hand02 Rope1_Seg09
L_mid_hand03 Rope1_Seg09
null_rope02_connect R_mid_tent01
Rope2_Seg01 null_rope02_connect
Rope2_Seg02 Rope2_Seg01
Rope2_Seg03 Rope2_Seg02
Rope2_Seg04 Rope2_Seg03
Rope2_Seg05 Rope2_Seg04
Rope2_Seg06 Rope2_Seg05
Rope2_Seg07 Rope2_Seg06
Rope2_Seg09 Rope2_Seg07
R_mid_hand01 Rope2_Seg09
R_mid_hand02 Rope2_Seg09
R_mid_hand03 Rope2_Seg09
spine02 spine01
spine03 spine02
pelvis spine03
null_rope03_connect pelvis
null_rope04_connect pelvis
Rope3_Seg01 null_rope03_connect
Rope3_Seg02 Rope3_Seg01
Rope3_Seg03 Rope3_Seg02
Rope3_Seg04 Rope3_Seg03
Rope3_Seg05 Rope3_Seg04
Rope3_Seg06 Rope3_Seg05
Rope3_Seg07 Rope3_Seg06
Rope3_Seg08 Rope3_Seg07
Rope3_Seg09 Rope3_Seg08
R_rear_hand01 Rope3_Seg09
R_rear_hand02 Rope3_Seg09
R_rear_hand03 Rope3_Seg09
Rope4_Seg01 null_rope04_connect
Rope4_Seg02 Rope4_Seg01
Rope4_Seg03 Rope4_Seg02
Rope4_Seg04 Rope4_Seg03
Rope4_Seg05 Rope4_Seg04
Rope4_Seg06 Rope4_Seg05
Rope4_Seg07 Rope4_Seg06
Rope4_Seg08 Rope4_Seg07
Rope4_Seg09 Rope4_Seg08
L_rear_hand01 Rope4_Seg09
L_rear_hand02 Rope4_Seg09
L_rear_hand03 Rope4_Seg09
[BasePosition]
#SegmentName Tx, Ty, Tz, Rx, Ry, Rz, BoneLength
MASTER 0.000000 0.000000 0.000000 -90.000000 0.000000 0.000000 10.000000 
root 0.000000 0.000000 0.000000 0.000000 0.000000 0.000000 10.000000 
chest 0.000000 0.000000 0.000000 0.000000 0.000000 0.000000 10.000000 
L_mid_tent01 0.000000 0.000000 0.000000 0.000000 0.000000 0.000000 10.000000 
R_mid_tent01 0.000000 0.000000 0.000000 0.000000 0.000000 0.000000 10.000000 
spine01 0.000000 0.000000 0.000000 0.000000 0.000000 0.000000 10.000000 
Bip01_Neck 0.000000 0.000000 0.000000 0.000000 0.000000 0.000000 10.000000 
L_humerus 0.000000 0.000000 0.000000 0.000000 0.000000 0.000000 10.000000 
R_humerus 0.000000 0.000000 0.000000 0.000000 0.000000 0.000000 10.000000 
weapon_bone 0.000000 0.000000 0.000000 0.000000 0.000000 0.000000 10.000000 
Bip01_Head 0.000000 0.000000 0.000000 0.000000 0.000000 0.000000 10.000000 
eye_left_bone 0.000000 0.000000 0.000000 0.000000 0.000000 0.000000 10.000000 
eye_right_bone 0.000000 0.000000 0.000000 0.000000 0.000000 0.000000 10.000000 
L_forearm 0.000000 0.000000 0.000000 0.000000 0.000000 0.000000 10.000000 
L_front_hand 0.000000 0.000000 0.000000 0.000000 0.000000 0.000000 10.000000 
L_weapon_bone 0.000000 0.000000 0.000000 0.000000 0.000000 0.000000 10.000000 
L_front_hand01_01 0.000000 0.000000 0.000000 0.000000 0.000000 0.000000 10.000000 
L_front_hand02_01 0.000000 0.000000 0.000000 0.000000 0.000000 0.000000 10.000000 
L_front_hand03_01 0.000000 0.000000 0.000000 0.000000 0.000000 0.000000 10.000000 
L_front_hand01_02 0.000000 0.000000 0.000000 0.000000 0.000000 0.000000 10.000000 
L_front_hand02_02 0.000000 0.000000 0.000000 0.000000 0.000000 0.000000 10.000000 
L_front_hand03_02 0.000000 0.000000 0.000000 0.000000 0.000000 0.000000 10.000000 
R_forearm 0.000000 0.000000 0.000000 0.000000 0.000000 0.000000 10.000000 
R_front_hand 0.000000 0.000000 0.000000 0.000000 0.000000 0.000000 10.000000 
R_weapon_bone 0.000000 0.000000 0.000000 0.000000 0.000000 0.000000 10.000000 
R_front_hand01_01 0.000000 0.000000 0.000000 0.000000 0.000000 0.000000 10.000000 
R_front_hand02_01 0.000000 0.000000 0.000000 0.000000 0.000000 0.000000 10.000000 
R_front_hand03_01 0.000000 0.000000 0.000000 0.000000 0.000000 0.000000 10.000000 
R_front_hand01_02 0.000000 0.000000 0.000000 0.000000 0.000000 0.000000 10.000000 
R_front_hand02_02 0.000000 0.000000 0.000000 0.000000 0.000000 0.000000 10.000000 
R_front_hand03_02 0.000000 0.000000 0.000000 0.000000 0.000000 0.000000 10.000000 
null_rope01_connect 0.000000 0.000000 0.000000 0.000000 0.000000 0.000000 10.000000 
Rope1_Seg01 0.000000 0.000000 0.000000 0.000000 0.000000 0.000000 10.000000 
Rope1_Seg02 0.000000 0.000000 0.000000 0.000000 0.000000 0.000000 10.000000 
Rope1_Seg03 0.000000 0.000000 0.000000 0.000000 0.000000 0.000000 10.000000 
Rope1_Seg04 0.000000 0.000000 0.000000 0.000000 0.000000 0.000000 10.000000 
Rope1_Seg05 0.000000 0.000000 0.000000 0.000000 0.000000 0.000000 10.000000 
Rope1_Seg06 0.000000 0.000000 0.000000 0.000000 0.000000 0.000000 10.000000 
Rope1_Seg07 0.000000 0.000000 0.000000 0.000000 0.000000 0.000000 10.000000 
Rope1_Seg09 0.000000 0.000000 0.000000 0.000000 0.000000 0.000000 10.000000 
L_mid_hand01 0.000000 0.000000 0.000000 0.000000 0.000000 0.000000 10.000000 
L_mid_hand02 0.000000 0.000000 0.000000 0.000000 0.000000 0.000000 10.000000 
L_mid_hand03 0.000000 0.000000 0.000000 0.000000 0.000000 0.000000 10.000000 
null_rope02_connect 0.000000 0.000000 0.000000 0.000000 0.000000 0.000000 10.000000 
Rope2_Seg01 0.000000 0.000000 0.000000 0.000000 0.000000 0.000000 10.000000 
Rope2_Seg02 0.000000 0.000000 0.000000 0.000000 0.000000 0.000000 10.000000 
Rope2_Seg03 0.000000 0.000000 0.000000 0.000000 0.000000 0.000000 10.000000 
Rope2_Seg04 0.000000 0.000000 0.000000 0.000000 0.000000 0.000000 10.000000 
Rope2_Seg05 0.000000 0.000000 0.000000 0.000000 0.000000 0.000000 10.000000 
Rope2_Seg06 0.000000 0.000000 0.000000 0.000000 0.000000 0.000000 10.000000 
Rope2_Seg07 0.000000 0.000000 0.000000 0.000000 0.000000 0.000000 10.000000 
Rope2_Seg09 0.000000 0.000000 0.000000 0.000000 0.000000 0.000000 10.000000 
R_mid_hand01 0.000000 0.000000 0.000000 0.000000 0.000000 0.000000 10.000000 
R_mid_hand02 0.000000 0.000000 0.000000 0.000000 0.000000 0.000000 10.000000 
R_mid_hand03 0.000000 0.000000 0.000000 0.000000 0.000000 0.000000 10.000000 
spine02 0.000000 0.000000 0.000000 0.000000 0.000000 0.000000 10.000000 
spine03 0.000000 0.000000 0.000000 0.000000 0.000000 0.000000 10.000000 
pelvis 0.000000 0.000000 0.000000 0.000000 0.000000 0.000000 10.000000 
null_rope03_connect 0.000000 0.000000 0.000000 0.000000 0.000000 0.000000 10.000000 
null_rope04_connect 0.000000 0.000000 0.000000 0.000000 0.000000 0.000000 10.000000 
Rope3_Seg01 0.000000 0.000000 0.000000 0.000000 0.000000 0.000000 10.000000 
Rope3_Seg02 0.000000 0.000000 0.000000 0.000000 0.000000 0.000000 10.000000 
Rope3_Seg03 0.000000 0.000000 0.000000 0.000000 0.000000 0.000000 10.000000 
Rope3_Seg04 0.000000 0.000000 0.000000 0.000000 0.000000 0.000000 10.000000 
Rope3_Seg05 0.000000 0.000000 0.000000 0.000000 0.000000 0.000000 10.000000 
Rope3_Seg06 0.000000 0.000000 0.000000 0.000000 0.000000 0.000000 10.000000 
Rope3_Seg07 0.000000 0.000000 0.000000 0.000000 0.000000 0.000000 10.000000 
Rope3_Seg08 0.000000 0.000000 0.000000 0.000000 0.000000 0.000000 10.000000 
Rope3_Seg09 0.000000 0.000000 0.000000 0.000000 0.000000 0.000000 10.000000 
R_rear_hand01 0.000000 0.000000 0.000000 0.000000 0.000000 0.000000 10.000000 
R_rear_hand02 0.000000 0.000000 0.000000 0.000000 0.000000 0.000000 10.000000 
R_rear_hand03 0.000000 0.000000 0.000000 0.000000 0.000000 0.000000 10.000000 
Rope4_Seg01 0.000000 0.000000 0.000000 0.000000 0.000000 0.000000 10.000000 
Rope4_Seg02 0.000000 0.000000 0.000000 0.000000 0.000000 0.000000 10.000000 
Rope4_Seg03 0.000000 0.000000 0.000000 0.000000 0.000000 0.000000 10.000000 
Rope4_Seg04 0.000000 0.000000 0.000000 0.000000 0.000000 0.000000 10.000000 
Rope4_Seg05 0.000000 0.000000 0.000000 0.000000 0.000000 0.000000 10.000000 
Rope4_Seg06 0.000000 0.000000 0.000000 0.000000 0.000000 0.000000 10.000000 
Rope4_Seg07 0.000000 0.000000 0.000000 0.000000 0.000000 0.000000 10.000000 
Rope4_Seg08 0.000000 0.000000 0.000000 0.000000 0.000000 0.000000 10.000000 
Rope4_Seg09 0.000000 0.000000 0.000000 0.000000 0.000000 0.000000 10.000000 
L_rear_hand01 0.000000 0.000000 0.000000 0.000000 0.000000 0.000000 10.000000 
L_rear_hand02 0.000000 0.000000 0.000000 0.000000 0.000000 0.000000 10.000000 
L_rear_hand03 0.000000 0.000000 0.000000 0.000000 0.000000 0.000000 10.000000 
#Beginning of Data. Separated by tabs
#Fr	Tx	Ty	Tz	Rx	Ry	Rz	SF
[MASTER]
6 -871.255249 1147.461304 990.914978 0.001660 0.001660 0.001660 1748.618286
7 -1080.481934 1315.359131 1269.663696 0.001660 0.001660 0.001660 2123.595215
[root]
6 23.470009 -78.814758 1308.661987 -98.399132 -35.576645 -89.869873 1311.243164
7 67.248001 -32.547455 1283.650513 -106.575851 -33.805111 -88.052589 1285.822754
[chest]
6 -84.512650 -34.090519 0.000000 -18.169209 -11.343663 -178.604797 91.129311
7 -84.512650 -34.090519 0.000000 -22.373447 -13.370837 -174.869217 91.129311
[L_mid_tent01]
6 27.299026 22.179258 -249.918686 -0.478570 12.791245 69.451340 252.381668
7 27.299015 22.179258 -249.918686 -1.189963 17.078775 68.416061 252.381668
[R_mid_tent01]
6 23.228794 24.509907 226.238495 169.680267 -23.333866 66.515968 228.744751
7 23.228794 24.509907 226.238495 171.441574 -25.223787 62.099098 228.744751
[spine01]
6 -0.361383 -0.195265 0.000000 0.001952 0.001303 22.547539 0.410763
7 -0.361383 -0.195265 0.000000 0.001953 0.001302 22.619827 0.410763
[Bip01_Neck]
6 165.484543 71.581718 0.000119 176.643677 -1.657967 43.431911 180.302734
7 165.484543 71.581718 0.000119 176.643677 -1.657967 43.431911 180.302734
[L_humerus]
6 -13.983130 -135.272980 -120.471481 1.588326 69.714462 91.413467 181.680161
7 -13.983130 -135.272980 -120.471481 4.475571 70.998978 94.287521 181.680161
[R_humerus]
6 -13.983309 -135.273102 125.287651 34.348095 -82.737961 60.907501 184.909012
7 -13.983309 -135.273102 125.287651 62.412273 -87.276527 32.743973 184.909012
[weapon_bone]
6 235.964890 -300.705902 0.000000 0.000000 -89.951546 -128.212341 382.234833
7 235.964890 -300.705902 0.000000 0.000000 -89.951546 -128.212341 382.234833
[Bip01_Head]
6 213.553467 185.411758 15.697084 13.319457 2.886919 -43.868645 283.247253
7 213.636475 185.181107 18.674126 15.014684 0.900861 -43.884995 283.339569
[eye_left_bone]
6 -24.626970 125.451866 -64.772606 0.000000 -90.000000 -99.840431 143.318359
7 -24.626970 125.451866 -64.772606 0.000000 -90.000000 -99.840431 143.318359
[eye_right_bone]
6 -24.626970 125.451866 64.327362 0.000000 -89.965736 80.156380 143.117676
7 -24.626970 125.451866 64.327362 0.000000 -89.972023 80.156380 143.117676
[L_forearm]
6 322.776093 0.000000 -0.000119 0.000417 -0.002310 -110.476891 322.776093
7 322.776093 0.000000 -0.000119 0.000420 -0.002309 -110.627319 322.776093
[L_front_hand]
6 241.149185 -0.042021 -3.300071 -178.667953 -1.835447 -27.422350 241.171753
7 241.149185 -0.042021 -3.300071 -178.667953 -1.835447 -27.422342 241.171753
[L_weapon_bone]
6 156.183838 0.000000 0.000000 0.000014 0.000007 0.000001 156.183838
7 156.183838 0.000000 0.000000 0.000014 0.000007 0.000001 156.183838
[L_front_hand01_01]
6 86.095154 20.947098 -0.655860 -0.340755 -0.496208 72.096481 88.609184
7 86.095154 20.947098 -0.655860 -0.322964 -0.505554 70.186295 88.609184
[L_front_hand02_01]
6 86.935165 -11.437475 24.513514 149.544266 -58.335350 -55.710854 91.046425
7 86.935165 -11.437475 24.513514 146.960190 -57.330456 -52.657890 91.046425
[L_front_hand03_01]
6 86.637497 -14.123976 -20.424902 -149.397461 56.551064 -57.336918 90.126129
7 86.637497 -14.123976 -20.424902 -146.989075 55.546074 -54.434807 90.126129
[L_front_hand01_02]
6 71.020905 -0.000179 0.000030 0.000316 -0.002326 -105.493759 71.020905
7 71.020905 -0.000179 0.000030 0.000316 -0.002326 -105.473587 71.020905
[L_front_hand02_02]
6 71.020927 -0.000119 0.000060 0.000316 -0.002326 -105.493759 71.020927
7 71.020927 -0.000119 0.000060 0.000316 -0.002326 -105.473587 71.020927
[L_front_hand03_02]
6 71.020905 -0.000060 0.000060 0.000316 -0.002326 -105.493759 71.020905
7 71.020905 -0.000060 0.000060 0.000316 -0.002326 -105.473587 71.020905
[R_forearm]
6 322.776428 -0.000060 0.000030 0.201490 0.067029 -109.125488 322.776428
7 322.776428 -0.000060 0.000030 0.201395 0.067312 -109.286354 322.776428
[R_front_hand]
6 238.847015 -0.006795 2.210259 -2.635298 -10.645461 -26.312506 238.857239
7 238.847015 -0.006795 2.210259 -2.635298 -10.645461 -26.312506 238.857239
[R_weapon_bone]
6 155.664093 0.002503 -0.000030 0.003487 0.001180 -90.988914 155.664078
7 155.664093 0.002503 -0.000030 0.003487 0.001180 -90.988930 155.664078
[R_front_hand01_01]
6 87.624611 14.231146 22.918642 -149.707169 -58.394505 56.007458 91.683487
7 87.624611 14.231146 22.918642 -146.976166 -57.336147 52.779388 91.683487
[R_front_hand02_01]
6 89.356956 14.367283 -19.491137 149.983444 56.758789 58.275921 92.579636
7 89.356956 14.367283 -19.491137 147.400665 55.711205 55.166904 92.579636
[R_front_hand03_01]
6 87.286232 -22.307278 -0.143439 0.134949 -0.432464 -72.452232 90.091743
7 87.286232 -22.307278 -0.143439 0.123256 -0.437630 -70.429710 90.091743
[R_front_hand01_02]
6 71.020905 0.000060 0.000119 0.002323 -0.000334 106.381714 71.020905
7 71.020905 0.000060 0.000119 0.002323 -0.000334 106.381714 71.020905
[R_front_hand02_02]
6 71.020844 -0.000030 -0.000119 0.002323 -0.000334 106.381714 71.020836
7 71.020844 -0.000030 -0.000119 0.002323 -0.000334 106.381714 71.020836
[R_front_hand03_02]
6 71.020905 0.000000 0.000030 0.002323 -0.000334 106.381714 71.020905
7 71.020905 0.000000 0.000030 0.002323 -0.000334 106.381714 71.020905
[null_rope01_connect]
6 328.732483 0.000000 -0.000238 -133.373062 -69.159966 -170.241180 328.732483
7 328.732483 0.000000 -0.000238 -139.159683 -58.017254 -164.434982 328.732483
[Rope1_Seg01]
6 0.000000 0.000000 0.000000 34.830158 35.798004 -133.026535 0.000000
7 0.000000 0.000000 0.000000 20.828024 21.311779 -143.240295 0.000000
[Rope1_Seg02]
6 139.999863 -0.000179 0.000000 -6.560158 -7.293069 -23.378254 139.999863
7 139.999863 -0.000179 0.000000 -11.349995 -7.715270 -29.384861 139.999863
[Rope1_Seg03]
6 139.999924 0.000060 -0.000060 -1.838595 -7.239072 -19.113008 139.999924
7 139.999924 0.000060 -0.000060 -2.969136 -4.124946 -17.335094 139.999924
[Rope1_Seg04]
6 139.999924 -0.000060 -0.000119 0.159011 0.277547 -15.300896 139.999924
7 139.999924 -0.000060 -0.000119 -1.244651 8.102559 -20.644875 139.999924
[Rope1_Seg05]
6 139.999832 0.000119 -0.000060 0.889568 10.824220 -25.247917 139.999832
7 139.999832 0.000119 -0.000060 0.397426 11.567076 -21.413836 139.999832
[Rope1_Seg06]
6 139.999954 0.000119 -0.000060 6.530709 6.519619 -18.435858 139.999954
7 139.999954 0.000119 -0.000060 2.770219 4.089261 -9.663280 139.999954
[Rope1_Seg07]
6 139.999985 0.000060 0.000000 7.722641 1.652061 -9.470818 139.999985
7 139.999985 0.000060 0.000000 2.538242 2.012730 -5.591404 139.999985
[Rope1_Seg09]
6 121.602913 0.000119 -0.000089 -89.793175 -1.359789 0.847147 121.602913
7 121.602913 0.000119 -0.000089 -89.793175 -1.359789 0.847147 121.602913
[L_mid_hand01]
6 103.859421 1.038730 8.195221 115.405022 -54.702576 -21.718946 104.187431
7 103.859421 1.038730 8.195221 112.987701 -50.601227 -18.681456 104.187431
[L_mid_hand02]
6 105.572853 -4.139662 -10.864139 -156.173538 38.796768 -54.226353 106.211075
7 105.572853 -4.139662 -10.864139 -153.018723 36.866009 -49.082401 106.211075
[L_mid_hand03]
6 104.641464 17.579376 -3.913581 -10.557028 15.605442 59.191399 106.179977
7 104.641464 17.579376 -3.913581 -11.755013 14.733717 54.618225 106.179977
[null_rope02_connect]
6 328.732849 0.000179 -0.000119 -79.783051 69.175415 40.416111 328.732849
7 328.732849 0.000179 -0.000119 -64.644638 68.955482 54.403549 328.732849
[Rope2_Seg01]
6 0.000042 0.000136 0.000000 30.376293 43.591503 -36.808613 0.000142
7 0.000043 0.000133 0.000000 35.625767 48.821899 -31.381739 0.000140
[Rope2_Seg02]
6 139.999741 -0.000060 -0.000119 2.182486 4.861633 2.614604 139.999756
7 139.999741 -0.000060 -0.000119 1.515066 2.942771 2.851180 139.999756
[Rope2_Seg03]
6 140.000107 0.000030 0.000000 3.594692 -1.789922 8.837370 140.000107
7 140.000107 0.000030 0.000000 2.234581 -5.242326 8.583224 140.000107
[Rope2_Seg04]
6 139.999802 0.000000 -0.000060 1.362063 8.477426 -0.447896 139.999802
7 139.999802 0.000000 -0.000060 0.909990 3.967269 0.221237 139.999802
[Rope2_Seg05]
6 139.999985 -0.000060 0.000119 -18.774908 44.503696 -50.738056 139.999985
7 139.999985 -0.000060 0.000119 -20.519991 46.244747 -49.308182 139.999985
[Rope2_Seg06]
6 139.999893 -0.000030 -0.000119 6.665748 14.970856 -13.373263 139.999893
7 139.999893 -0.000030 -0.000119 8.905871 23.132818 -19.178818 139.999893
[Rope2_Seg07]
6 139.999893 0.000060 -0.000060 5.128892 4.218433 -4.740065 139.999893
7 139.999893 0.000060 -0.000060 9.623742 4.904585 -5.802843 139.999893
[Rope2_Seg09]
6 121.338966 0.000089 -0.000060 33.793236 -1.359788 -0.847141 121.338966
7 121.338966 0.000089 -0.000060 33.793236 -1.359788 -0.847141 121.338966
[R_mid_hand01]
6 104.680779 11.144459 -10.335981 -22.984863 42.734234 60.718655 105.778534
7 104.680779 11.144459 -10.335981 -25.192726 41.648338 57.439434 105.778534
[R_mid_hand02]
6 104.070427 2.443552 8.231699 58.419525 -61.729706 28.969120 104.424065
7 104.070427 2.443552 8.231699 60.800945 -59.436069 26.232430 104.424065
[R_mid_hand03]
6 106.028137 -11.221827 -5.996406 -175.069138 15.041784 -68.893349 106.788818
7 106.028137 -11.221827 -5.996406 -174.361145 14.799507 -66.152634 106.788818
[spine02]
6 129.756927 0.001550 0.000119 0.463281 -4.033405 -14.448810 129.756927
7 129.756927 0.001550 0.000119 0.480671 -4.031268 -14.663939 129.756927
[spine03]
6 78.614067 0.081743 -4.899005 1.960837 3.800482 17.420324 78.766602
7 78.614067 0.081743 -4.899004 1.970549 3.797235 17.565786 78.766602
[pelvis]
6 169.435242 0.051022 0.000000 1.811156 -0.546540 11.373518 169.435257
7 169.435242 0.051022 0.000000 2.470654 -0.652962 10.291051 169.435257
[null_rope03_connect]
6 -1.257226 -2.466202 137.391083 -134.970169 -84.541992 -136.292252 137.418976
7 -1.257226 -2.466202 137.391083 -147.724701 -78.065445 -123.939629 137.418976
[null_rope04_connect]
6 -1.259640 -2.480268 -137.844437 -134.970169 -84.541992 -136.292252 137.872513
7 -1.259640 -2.480268 -137.844437 -147.724701 -78.065445 -123.939629 137.872513
[Rope3_Seg01]
6 0.000000 0.000000 0.000000 19.811235 -12.372051 -92.078316 0.000000
7 0.000000 0.000000 0.000000 19.328426 -16.041878 -84.795044 0.000000
[Rope3_Seg02]
6 139.999924 -0.000119 0.000060 1.130002 0.961970 33.676823 139.999924
7 139.999924 -0.000119 0.000060 1.338120 8.535123 36.698769 139.999924
[Rope3_Seg03]
6 139.999924 -0.000119 0.000119 -25.687729 -0.838033 52.714626 139.999924
7 139.999924 -0.000119 0.000119 -24.438700 7.017311 44.792645 139.999924
[Rope3_Seg04]
6 139.999924 0.000119 0.000000 -21.922594 -7.823594 14.487268 139.999924
7 139.999924 0.000119 0.000000 -28.100473 -4.646279 12.961658 139.999924
[Rope3_Seg05]
6 139.999924 -0.000238 0.000060 -19.293507 -5.542773 11.445853 139.999924
7 139.999924 -0.000238 0.000060 -30.782085 -6.027426 10.103655 139.999924
[Rope3_Seg06]
6 139.999893 -0.000119 -0.000060 -49.433609 -15.451649 22.056688 139.999893
7 139.999893 -0.000119 -0.000060 -47.712307 -17.732111 12.760515 139.999893
[Rope3_Seg07]
6 139.999771 0.000060 -0.000119 -23.388889 -24.448057 2.694913 139.999771
7 139.999771 0.000060 -0.000119 -16.058418 -22.561251 -4.713031 139.999771
[Rope3_Seg08]
6 139.999985 -0.000060 0.000000 -3.910623 -10.297839 -3.566806 139.999985
7 139.999985 -0.000060 0.000000 -2.301551 -8.996517 -5.252629 139.999985
[Rope3_Seg09]
6 90.185997 -0.000179 -0.000060 89.793228 -1.359877 -0.847183 90.185997
7 90.185997 -0.000179 -0.000060 89.793228 -1.359877 -0.847183 90.185997
[R_rear_hand01]
6 103.366196 -6.073594 -10.757982 -173.599045 23.870514 -63.902164 104.101845
7 103.366196 -6.073594 -10.757982 -172.199188 23.472191 -60.427750 104.101845
[R_rear_hand02]
6 100.509819 12.039542 -7.992327 -19.192892 34.332623 61.336498 101.543350
7 100.509819 12.039542 -7.992327 -21.205954 33.223911 57.720810 101.543350
[R_rear_hand03]
6 101.539970 5.215704 5.435467 77.403587 -62.983585 15.125125 101.819031
7 101.539970 5.215704 5.435467 78.624985 -59.850563 13.735100 101.819031
[Rope4_Seg01]
6 0.000010 0.000034 -0.000136 -97.273987 -14.582213 -109.914032 0.000141
7 0.000010 0.000033 -0.000133 -98.075455 -19.086370 -106.845673 0.000137
[Rope4_Seg02]
6 139.999985 0.000060 0.000119 0.355817 7.746981 2.301176 139.999985
7 139.999985 0.000060 0.000119 0.450735 12.791565 -0.788878 139.999985
[Rope4_Seg03]
6 139.999924 0.000000 -0.000238 1.248142 11.724504 1.969512 139.999924
7 139.999924 0.000000 -0.000238 7.496377 32.952984 -9.461591 139.999924
[Rope4_Seg04]
6 139.999985 0.000000 0.000119 84.989975 60.134285 32.720539 139.999985
7 139.999985 0.000000 0.000119 75.483696 66.340591 -19.714722 139.999985
[Rope4_Seg05]
6 139.999802 -0.000060 -0.000119 93.558662 25.994192 -27.633011 139.999802
7 139.999802 -0.000060 -0.000119 19.435368 2.251439 -14.945124 139.999802
[Rope4_Seg06]
6 139.999924 0.000000 0.000060 1.070818 -3.257340 -2.270332 139.999924
7 139.999924 0.000000 0.000060 2.929333 -1.048402 -3.063276 139.999924
[Rope4_Seg07]
6 139.999802 0.000000 0.000000 0.553858 -1.753510 -1.174171 139.999802
7 139.999802 0.000000 0.000000 1.569919 -0.682436 -1.699368 139.999802
[Rope4_Seg08]
6 139.999924 0.000000 0.000119 -1.244304 -0.969735 -0.635759 139.999924
7 139.999924 0.000000 0.000119 -0.687331 -0.414558 -0.950407 139.999924
[Rope4_Seg09]
6 90.185791 0.000060 0.000060 -135.617828 2.228885 0.850567 90.185791
7 90.185791 0.000060 0.000060 -135.617828 2.228885 0.850567 90.185791
[L_rear_hand01]
6 101.696655 -8.392275 -7.654577 -28.953402 -26.963970 137.645660 102.329041
7 101.696655 -8.392275 -7.654577 -30.967802 -24.555588 142.276382 102.329041
[L_rear_hand02]
6 102.726799 -1.568258 5.773216 81.888351 45.378387 170.342453 102.900848
7 102.726799 -1.568258 5.773216 82.497200 40.606583 171.238342 102.900848
[L_rear_hand03]
6 104.552910 9.721220 -10.420293 -166.314163 -20.719036 -135.138702 105.519653
7 104.552910 9.721220 -10.420293 -164.603775 -19.511108 -140.104065 105.519653
